<?xml version="1.0" encoding="utf-8"?>
<!-- Generator: Adobe Illustrator 23.0.0, SVG Export Plug-In . SVG Version: 6.00 Build 0)  -->
<svg version="1.1" id="图层_1" xmlns="http://www.w3.org/2000/svg" xmlns:xlink="http://www.w3.org/1999/xlink" x="0px" y="0px"
	 viewBox="0 0 200 200" style="enable-background:new 0 0 200 200;" xml:space="preserve">
<style type="text/css">
	.st0{fill:#3ED1A7;}
</style>
<path class="st0" d="M184.9,98.6l-75.5-75.4l-5.1-5.1c-2.4-2.4-6.3-2.4-8.7,0L15.1,98.6c-2.4,2.4-3.7,5.6-3.7,9
	c0.1,6.9,5.8,12.4,12.7,12.4h8.3v63.6h135.1V120h8.5c3.3,0,6.5-1.3,8.8-3.7c2.4-2.4,3.7-5.5,3.7-8.8
	C188.5,104.1,187.2,101,184.9,98.6L184.9,98.6z M114.7,176.7H86.9V127h27.9V176.7z M159.9,109v67.6h-36.5V125c0-4.3-3.5-7.8-7.8-7.8
	H84.4c-4.3,0-7.8,3.5-7.8,7.8v51.7H40.2V109H19.5l80.5-81l82.7,81H159.9z"/>
</svg>
