<?xml version="1.0" encoding="utf-8"?>
<!-- Generator: Adobe Illustrator 23.0.0, SVG Export Plug-In . SVG Version: 6.00 Build 0)  -->
<svg version="1.1" id="图层_1" xmlns="http://www.w3.org/2000/svg" xmlns:xlink="http://www.w3.org/1999/xlink" x="0px" y="0px"
	 viewBox="0 0 65.1 64" style="enable-background:new 0 0 65.1 64;" xml:space="preserve">
<style type="text/css">
	.st0{fill:#F25D90;}
</style>
<path class="st0" d="M59.2,23.9h0.4V10.2c0-3.2-2.6-5.8-5.8-5.8H10.2C7,4.4,4.4,7,4.4,10.2v13.7c4.5,0,8.1,3.6,8.1,8.1
	s-3.6,8.1-8.1,8.1v13.7c0,3.2,2.6,5.8,5.8,5.8h43.6c3.2,0,5.8-2.6,5.8-5.8V40.1c-6,0-10.3-6.3-7-12.5C53.8,25.2,56.4,23.9,59.2,23.9
	z M50,26.2c-2,3.8-2,8,0.1,11.5c1.5,2.5,3.9,4.2,6.5,4.9v11.2c0,1.6-1.3,2.9-2.9,2.9H10.2c-1.6,0-2.9-1.3-2.9-2.9V42.8
	c4.7-1.3,8.1-5.5,8.1-10.8c0-5.1-3.5-9.5-8.1-10.8V10.2c0-1.6,1.3-2.9,2.9-2.9h43.6c1.6,0,2.9,1.3,2.9,2.9v11.1
	C53.8,21.8,51.3,23.7,50,26.2z"/>
<path class="st0" d="M42.8,19.9H21.2c-0.9,0-1.5,0.6-1.5,1.5s0.6,1.5,1.5,1.5h21.5c0.9,0,1.5-0.6,1.5-1.5S43.6,19.9,42.8,19.9z
	 M42.8,30.5H21.2c-0.9,0-1.5,0.6-1.5,1.5c0,0.9,0.6,1.5,1.5,1.5h21.5c0.9,0,1.5-0.6,1.5-1.5S43.6,30.5,42.8,30.5z M42.8,41.3H21.2
	c-0.9,0-1.5,0.6-1.5,1.5s0.6,1.5,1.5,1.5h21.5c0.9,0,1.5-0.6,1.5-1.5S43.6,41.3,42.8,41.3z"/>
</svg>
