<?xml version="1.0" encoding="utf-8"?>
<!-- Generator: Adobe Illustrator 23.0.0, SVG Export Plug-In . SVG Version: 6.00 Build 0)  -->
<svg version="1.1" id="图层_1" xmlns="http://www.w3.org/2000/svg" xmlns:xlink="http://www.w3.org/1999/xlink" x="0px" y="0px"
	 viewBox="0 0 64 64" style="enable-background:new 0 0 64 64;" xml:space="preserve">
<style type="text/css">
	.st0{fill:#F7A765;}
</style>
<g>
	<path class="st0" d="M60.8,19.8c-1.6-3.7-3.8-7-6.7-9.9c-2.9-2.9-6.2-5.1-9.9-6.7c-3.8-1.6-7.9-2.4-12.1-2.4
		c-4.2,0-8.3,0.8-12.1,2.4c-3.7,1.6-7,3.8-9.9,6.7S5,16.1,3.4,19.8C1.8,23.6,1,27.7,1,31.9c0,4.2,0.8,8.3,2.4,12.1
		c1.6,3.7,3.8,7,6.7,9.9c2.9,2.9,6.2,5.1,9.9,6.7c3.8,1.6,7.9,2.4,12.1,2.4c4.2,0,8.3-0.8,12.1-2.4c3.7-1.6,7-3.8,9.9-6.7
		c2.9-2.9,5.1-6.2,6.7-9.9c1.6-3.8,2.4-7.9,2.4-12.1C63.2,27.7,62.4,23.6,60.8,19.8z M32.1,60.8c-15.9,0-28.9-13-28.9-28.9
		S16.2,3,32.1,3C48,3,61,16,61,31.9S48,60.8,32.1,60.8z"/>
	<path class="st0" d="M51.8,40.3l-18.4-9.2c-0.1-0.1-0.2-0.2-0.2-0.3V12.4c0-0.6-0.5-1.1-1.1-1.1c-0.6,0-1.1,0.5-1.1,1.1v18.3
		c0,1,0.6,1.9,1.5,2.4l18.4,9.2c0.2,0.1,0.3,0.1,0.5,0.1c0.4,0,0.8-0.2,1-0.6C52.6,41.3,52.4,40.6,51.8,40.3z"/>
	<path class="st0" d="M16.1,14.6c-5.4,3.6-8,9.8-8.1,10.1c-0.1,0.3,0,0.7,0.3,0.8c0.1,0,0.2,0,0.2,0c0.2,0,0.5-0.1,0.6-0.4
		c0-0.1,2.5-6.1,7.7-9.6c0.3-0.2,0.3-0.6,0.2-0.8C16.7,14.5,16.4,14.4,16.1,14.6z"/>
</g>
</svg>
