<?xml version="1.0" encoding="utf-8"?>
<!-- Generator: Adobe Illustrator 23.0.0, SVG Export Plug-In . SVG Version: 6.00 Build 0)  -->
<svg version="1.1" id="图层_1" xmlns="http://www.w3.org/2000/svg" xmlns:xlink="http://www.w3.org/1999/xlink" x="0px" y="0px"
	 viewBox="0 0 64 64" style="enable-background:new 0 0 64 64;" xml:space="preserve">
<style type="text/css">
	.st0{fill:#F28F7E;}
</style>
<path class="st0" d="M51.8,20.8h-2l1.6-1.6c0.4-0.4,0.4-1.1,0-1.5L37.8,4.2c-0.4-0.4-1.1-0.4-1.5,0l-2.7,2.7L26.7,4
	c-0.3-0.1-0.5-0.1-0.8,0c-0.3,0.1-0.5,0.3-0.6,0.6l-6.9,16.3h-6.4c-3.4,0-6.2,2.8-6.2,6.2v20.7c0,3.4,2.8,6.2,6.2,6.2h39.7
	c3.4,0,6.2-2.8,6.2-6.2l0-20.7C58,23.6,55.2,20.8,51.8,20.8z M53.9,40.6H39.7c-1.2,0-2.2-1-2.2-2.2v-2c0-1.2,1-2.2,2.2-2.2h14.2
	L53.9,40.6L53.9,40.6z M37.1,6.4l12.1,12.1l-2.3,2.3H22.7L37.1,6.4z M26.9,6.3l5.2,2.2L21.4,19.2L26.9,6.3z M51.8,49.9H12.1
	c-1.1,0-2.1-0.9-2.1-2.1l0-20.7c0-1.1,0.9-2.1,2.1-2.1h39.7c1.1,0,2.1,0.9,2.1,2.1v5.1H39.7c-2.4,0-4.3,1.9-4.3,4.3v2
	c0,2.4,1.9,4.3,4.3,4.3h14.2v5.1C53.9,48.9,52.9,49.9,51.8,49.9z"/>
<path class="st0" d="M39.1,37.4c0,1,0.8,1.9,1.9,1.9s1.9-0.8,1.9-1.9S42,35.5,41,35.5S39.1,36.4,39.1,37.4z"/>
</svg>
