<?xml version="1.0" encoding="utf-8"?>
<!-- Generator: Adobe Illustrator 23.0.0, SVG Export Plug-In . SVG Version: 6.00 Build 0)  -->
<svg version="1.1" id="图层_1" xmlns="http://www.w3.org/2000/svg" xmlns:xlink="http://www.w3.org/1999/xlink" x="0px" y="0px"
	 viewBox="0 0 64 64" style="enable-background:new 0 0 64 64;" xml:space="preserve">
<style type="text/css">
	.st0{fill:#EC7F7C;}
</style>
<path class="st0" d="M15.5,4.1h4.2V1.4c0-0.7,0.7-1.4,1.4-1.4h0.3c0.7,0,1.4,0.7,1.4,1.4v2.7h9V1.4c0-0.7,0.7-1.4,1.4-1.4h0.3
	c0.7,0,1.4,0.7,1.4,1.4v2.7h9V1.4c0-0.7,0.7-1.4,1.4-1.4h0.3c0.7,0,1.4,0.7,1.4,1.4v2.7h4.2c5.5,0,10,4.5,10,10v40
	c0,5.5-4.5,10-10,10H15.5c-5.5,0-10-4.5-10-10V14C5.6,8.6,10,4.1,15.5,4.1z M17.9,49.2h30.5c2,0,2,2.8,0,2.8H17.9
	C16,52,16,49.2,17.9,49.2z M17.9,38.2h30.5c2,0,2,2.8,0,2.8H17.9C16,41,16,38.2,17.9,38.2z M17.9,27.1h30.5c2,0,2,2.8,0,2.8H17.9
	C16,29.9,16,27.1,17.9,27.1z M17.9,16.1h30.5c2,0,2,2.8,0,2.8H17.9C16,18.8,16,16.1,17.9,16.1z M15.5,6.9c-4,0-7.2,3.2-7.2,7.2v40
	c0,4,3.2,7.2,7.2,7.2h35.4c4,0,7.2-3.2,7.2-7.2V14c0-4-3.2-7.2-7.2-7.2L15.5,6.9C15.5,6.9,15.5,6.9,15.5,6.9z"/>
</svg>
