<?xml version="1.0" encoding="utf-8"?>
<!-- Generator: Adobe Illustrator 23.0.0, SVG Export Plug-In . SVG Version: 6.00 Build 0)  -->
<svg version="1.1" id="图层_1" xmlns="http://www.w3.org/2000/svg" xmlns:xlink="http://www.w3.org/1999/xlink" x="0px" y="0px"
	 viewBox="0 0 64 64" style="enable-background:new 0 0 64 64;" xml:space="preserve">
<style type="text/css">
	.st0{fill:#DC504E;}
</style>
<path class="st0" d="M32,3.4C16.2,3.4,3.4,16.2,3.4,32S16.2,60.6,32,60.6S60.6,47.8,60.6,32S47.8,3.4,32,3.4z M45.2,21.4L34.6,32.1
	L44,42.6c0.7,0.7,0.7,2,0,2.7c-0.7,0.7-2,0.7-2.7,0l-9.4-10.5L21.4,45.2c-0.7,0.7-2,0.7-2.7,0c-0.7-0.7-0.7-2,0-2.7l10.6-10.6
	l-9.5-10.5c-0.7-0.7-0.7-2,0-2.7c0.7-0.7,2-0.7,2.7,0L32,29.2l10.5-10.5c0.7-0.7,2-0.7,2.7,0C46,19.5,46,20.7,45.2,21.4z"/>
</svg>
