<?xml version="1.0" encoding="utf-8"?>
<!-- Generator: Adobe Illustrator 23.0.0, SVG Export Plug-In . SVG Version: 6.00 Build 0)  -->
<svg version="1.1" id="图层_1" xmlns="http://www.w3.org/2000/svg" xmlns:xlink="http://www.w3.org/1999/xlink" x="0px" y="0px"
	 viewBox="0 0 64 64" style="enable-background:new 0 0 64 64;" xml:space="preserve">
<style type="text/css">
	.st0{fill:#00B5BB;}
</style>
<path class="st0" d="M43.9,0.6l13.9,14.7c0.2,0.2,0.3,0.7,0.3,1v41.2c0,2.1-0.6,3.7-1.7,4.8c-1.1,1.1-2.8,1.7-4.8,1.7H12.3
	c-2.1,0-3.7-0.6-4.8-1.7c-1.1-1.1-1.7-2.8-1.7-4.8V6.5c0-4.5,2.2-6.7,6.5-6.5l0,0l0,0h0.1h30.4l0,0C43.2,0,43.7,0.2,43.9,0.6z
	 M55.3,16.7L42.2,2.9H12.4h-0.1C9.9,2.9,8.7,4,8.7,6.5v50.8c0,1.4,0.2,2.3,0.8,2.9c0.6,0.6,1.5,0.8,2.8,0.8h39.5
	c1.3,0,2.2-0.2,2.8-0.8s0.8-1.5,0.8-2.9L55.3,16.7L55.3,16.7z M12.3,0L12.3,0"/>
<path class="st0" d="M42.4,0C41.6,0,41,0.7,41,1.5s0.6,1.4,1.4,1.5l-0.5-0.5l0.5-0.5V3h-0.1l12.8,13.4c0,0.8,0.7,1.4,1.5,1.4
	c0.8,0,1.5-0.7,1.5-1.5v-0.5c0-0.3-0.1-0.7-0.5-1l-1,1l1-1L44.2,0.6C43.9,0.2,43.5,0,43,0H42.4L42.4,0z M56.2,16.2l-0.6,0.5
	L56.2,16.2h-0.9v0.1l0.5,0.5l0,0c0.6,0.6,1.5,0.6,2.1,0c0.1-0.1,0.2-0.3,0.3-0.6H56.2z M43.7,23.3c0.8,0,1.4-0.7,1.4-1.5
	s-0.6-1.5-1.4-1.5H20.2c-0.8,0-1.4,0.7-1.4,1.5c0,0.8,0.6,1.5,1.4,1.5H43.7z"/>
<path class="st0" d="M56.4,17.4c0.8,0,1.5-0.7,1.5-1.4c0-0.8-0.7-1.4-1.5-1.4h-9.2c-0.2,0,0,0-0.1,0c-1.3,0-2.2-0.3-2.8-0.8
	c-0.6-0.6-0.8-1.4-0.8-2.6V1.5c0-0.8-0.7-1.4-1.5-1.4s-1.5,0.7-1.5,1.4V11l0,0c0,0.2,0,0,0,0.1c0,1.9,0.6,3.6,1.7,4.7
	c1.1,1,2.6,1.6,4.7,1.7h9.4V17.4z M43.7,33.5c0.8,0,1.4-0.7,1.4-1.5s-0.6-1.5-1.4-1.5H20.2c-0.8,0-1.4,0.7-1.4,1.5
	c0,0.8,0.6,1.5,1.4,1.5H43.7z M43.7,43.6c0.8,0,1.4-0.7,1.4-1.5c0-0.8-0.6-1.5-1.4-1.5H20.2c-0.8,0-1.4,0.7-1.4,1.5
	c0,0.8,0.6,1.5,1.4,1.5H43.7z M43.7,53.8c0.8,0,1.4-0.7,1.4-1.5c0-0.8-0.6-1.5-1.4-1.5H20.2c-0.8,0-1.4,0.7-1.4,1.5
	c0,0.8,0.6,1.5,1.4,1.5H43.7z"/>
</svg>
